<svg width="32" height="32" viewBox="0 0 32 32" fill="none" xmlns="http://www.w3.org/2000/svg">
  <defs>
    <mask id="mask0" mask-type="alpha">
      <!-- 将白色区域设置为不透明，用来裁剪绿色部分 -->
      <path fill-rule="evenodd" clip-rule="evenodd" d="M18.25 18.0381C16.0754 18.3043 13.9637 18.0534 12.0486 17.3926C13.2697 11.9325 18.7941 7.37032 25.9154 6.49913C27.2625 6.33457 28.5869 6.31147 29.8661 6.41651C29.4474 12.2733 24.6589 17.2543 18.25 18.0381ZM16.7918 12.2873C12.6665 15.146 12.7796 16.9477 12.7796 16.9477C12.7796 16.9477 14.2926 15.3162 17.383 13.1155C20.4734 10.9148 24.0412 9.51727 24.0412 9.51727C24.0412 9.51727 20.9171 9.42858 16.7918 12.2873Z" fill="white"/>
      <path fill-rule="evenodd" clip-rule="evenodd" d="M8.83546 13.9672C10.0094 14.4752 11.2139 14.716 12.3617 14.7193C12.3756 11.7998 9.8858 8.5816 6.04063 6.91834C5.31326 6.60372 4.58064 6.36315 3.85677 6.19409C3.34696 9.17177 5.37521 12.4705 8.83546 13.9672ZM10.5711 11.4511C12.2249 13.1159 12.194 14.6093 12.194 14.6093C12.194 14.6093 11.4993 13.1349 10.2639 11.854C9.02854 10.5731 7.28521 9.70045 7.28521 9.70045C7.28521 9.70045 8.9173 9.78635 10.5711 11.4511Z" fill="white"/>
      <path d="M14.3085 17.8901C13.0964 17.7635 12.6967 22.2489 13.2977 25.7632C13.3965 26.3412 14.659 31.439 14.8128 31.9396C15.1833 32.8632 13.2366 33.5328 12.8982 32.4175C12.7043 31.7786 11.4265 26.5848 11.3289 25.9374C10.8428 22.7109 11.4437 19.4898 12.0491 17.3871" fill="white"/>
    </mask>
  </defs>
  
  <g mask="url(#mask0)">
    <!-- 绿色背景 -->
    <path d="M0 12C0 5.37258 5.37258 0 12 0H20C26.6274 0 32 5.37258 32 12V20C32 26.6274 26.6274 32 20 32H0V12Z" fill="#32CD79"/>
  </g>
</svg>
